<mxfile host="app.diagrams.net" modified="2023-07-12T22:06:26.427Z" agent="Mozilla/5.0 (Windows NT 10.0; Win64; x64; rv:109.0) Gecko/20100101 Firefox/115.0" etag="aBn-abBZXA1hbFR1HtpG" version="21.6.2" type="device">
  <diagram name="Страница 1" id="oBNSar-HX1PgAmmaNmVZ">
    <mxGraphModel dx="875" dy="414" grid="1" gridSize="10" guides="1" tooltips="1" connect="1" arrows="1" fold="1" page="1" pageScale="1" pageWidth="827" pageHeight="1169" math="0" shadow="0">
      <root>
        <mxCell id="0" />
        <mxCell id="1" parent="0" />
        <mxCell id="mrQkhuQPZ2nRp8lR56Vo-2" value="&lt;font style=&quot;font-size: 30px;&quot;&gt;КЛИЕТЫ&lt;/font&gt;" style="ellipse;whiteSpace=wrap;html=1;fillColor=#e1d5e7;strokeColor=#9673a6;align=center;fontStyle=1" vertex="1" parent="1">
          <mxGeometry x="40" y="680" width="190" height="180" as="geometry" />
        </mxCell>
        <mxCell id="mrQkhuQPZ2nRp8lR56Vo-80" value="" style="endArrow=classic;html=1;rounded=0;entryX=0;entryY=0.5;entryDx=0;entryDy=0;exitX=1;exitY=0.5;exitDx=0;exitDy=0;" edge="1" parent="1" source="mrQkhuQPZ2nRp8lR56Vo-2" target="mrQkhuQPZ2nRp8lR56Vo-81">
          <mxGeometry width="50" height="50" relative="1" as="geometry">
            <mxPoint x="480" y="800" as="sourcePoint" />
            <mxPoint x="530" y="750" as="targetPoint" />
            <Array as="points" />
          </mxGeometry>
        </mxCell>
        <mxCell id="mrQkhuQPZ2nRp8lR56Vo-81" value="" style="rounded=0;whiteSpace=wrap;html=1;fillColor=none;dashed=1;dashPattern=8 8;" vertex="1" parent="1">
          <mxGeometry x="294" y="730" width="120" height="80" as="geometry" />
        </mxCell>
        <mxCell id="mrQkhuQPZ2nRp8lR56Vo-82" value="API GATEWAY" style="ellipse;whiteSpace=wrap;html=1;fillColor=#fad7ac;strokeColor=#b46504;" vertex="1" parent="1">
          <mxGeometry x="306" y="745" width="96" height="50" as="geometry" />
        </mxCell>
        <mxCell id="mrQkhuQPZ2nRp8lR56Vo-84" value="" style="rounded=0;whiteSpace=wrap;html=1;fillColor=#dae8fc;dashed=1;gradientColor=#7ea6e0;strokeColor=#6c8ebf;" vertex="1" parent="1">
          <mxGeometry x="470" y="485" width="170" height="95" as="geometry" />
        </mxCell>
        <mxCell id="mrQkhuQPZ2nRp8lR56Vo-85" value="" style="rounded=0;whiteSpace=wrap;html=1;fillColor=#dae8fc;dashed=1;gradientColor=#7ea6e0;strokeColor=#6c8ebf;" vertex="1" parent="1">
          <mxGeometry x="470" y="600" width="170" height="95" as="geometry" />
        </mxCell>
        <mxCell id="mrQkhuQPZ2nRp8lR56Vo-86" value="" style="rounded=0;whiteSpace=wrap;html=1;fillColor=#d5e8d4;dashed=1;strokeColor=#82b366;gradientColor=#97d077;" vertex="1" parent="1">
          <mxGeometry x="470" y="720" width="170" height="95" as="geometry" />
        </mxCell>
        <mxCell id="mrQkhuQPZ2nRp8lR56Vo-87" value="" style="rounded=0;whiteSpace=wrap;html=1;fillColor=#f8cecc;dashed=1;gradientColor=#ea6b66;strokeColor=#b85450;" vertex="1" parent="1">
          <mxGeometry x="470" y="840" width="170" height="95" as="geometry" />
        </mxCell>
        <mxCell id="mrQkhuQPZ2nRp8lR56Vo-96" value="" style="group;fillColor=none;" vertex="1" connectable="0" parent="1">
          <mxGeometry x="480" y="492.5" width="150" height="80" as="geometry" />
        </mxCell>
        <mxCell id="mrQkhuQPZ2nRp8lR56Vo-89" value="&lt;div style=&quot;&quot;&gt;&lt;font style=&quot;font-size: 12px;&quot;&gt;Mongo&lt;/font&gt;&lt;/div&gt;&lt;div style=&quot;&quot;&gt;&lt;font style=&quot;font-size: 12px;&quot;&gt;DB&lt;/font&gt;&lt;/div&gt;" style="shape=cylinder3;whiteSpace=wrap;html=1;boundedLbl=1;backgroundOutline=1;size=15;horizontal=0;" vertex="1" parent="mrQkhuQPZ2nRp8lR56Vo-96">
          <mxGeometry x="120" width="30" height="80" as="geometry" />
        </mxCell>
        <mxCell id="mrQkhuQPZ2nRp8lR56Vo-90" value="Comments" style="swimlane;fontStyle=0;childLayout=stackLayout;horizontal=1;startSize=10;horizontalStack=0;resizeParent=1;resizeParentMax=0;resizeLast=0;collapsible=1;marginBottom=0;whiteSpace=wrap;html=1;fontSize=7;" vertex="1" parent="mrQkhuQPZ2nRp8lR56Vo-96">
          <mxGeometry y="5" width="90" height="70" as="geometry" />
        </mxCell>
        <mxCell id="mrQkhuQPZ2nRp8lR56Vo-91" value="1. Creation, deletion&lt;br&gt;2. Lists" style="text;strokeColor=none;fillColor=none;align=left;verticalAlign=middle;spacingLeft=4;spacingRight=4;overflow=hidden;points=[[0,0.5],[1,0.5]];portConstraint=eastwest;rotatable=0;whiteSpace=wrap;html=1;fontSize=7;" vertex="1" parent="mrQkhuQPZ2nRp8lR56Vo-90">
          <mxGeometry y="10" width="90" height="60" as="geometry" />
        </mxCell>
        <mxCell id="mrQkhuQPZ2nRp8lR56Vo-94" value="" style="endArrow=classic;html=1;rounded=0;entryX=0;entryY=0;entryDx=0;entryDy=27.5;entryPerimeter=0;exitX=1;exitY=0.25;exitDx=0;exitDy=0;" edge="1" parent="mrQkhuQPZ2nRp8lR56Vo-96" source="mrQkhuQPZ2nRp8lR56Vo-90" target="mrQkhuQPZ2nRp8lR56Vo-89">
          <mxGeometry width="50" height="50" relative="1" as="geometry">
            <mxPoint x="50" y="87.5" as="sourcePoint" />
            <mxPoint x="100" y="37.5" as="targetPoint" />
          </mxGeometry>
        </mxCell>
        <mxCell id="mrQkhuQPZ2nRp8lR56Vo-95" value="" style="endArrow=classic;html=1;rounded=0;entryX=1.018;entryY=0.638;entryDx=0;entryDy=0;entryPerimeter=0;exitX=0;exitY=1;exitDx=0;exitDy=-15;exitPerimeter=0;" edge="1" parent="mrQkhuQPZ2nRp8lR56Vo-96" source="mrQkhuQPZ2nRp8lR56Vo-89" target="mrQkhuQPZ2nRp8lR56Vo-91">
          <mxGeometry width="50" height="50" relative="1" as="geometry">
            <mxPoint x="50" y="87.5" as="sourcePoint" />
            <mxPoint x="89.63999999999999" y="40.5" as="targetPoint" />
          </mxGeometry>
        </mxCell>
        <mxCell id="mrQkhuQPZ2nRp8lR56Vo-97" value="" style="group;fillColor=none;" vertex="1" connectable="0" parent="1">
          <mxGeometry x="480" y="620" width="150" height="70" as="geometry" />
        </mxCell>
        <mxCell id="mrQkhuQPZ2nRp8lR56Vo-98" value="&lt;div style=&quot;&quot;&gt;&lt;font style=&quot;font-size: 12px;&quot;&gt;Mongo&lt;/font&gt;&lt;/div&gt;&lt;div style=&quot;&quot;&gt;&lt;font style=&quot;font-size: 12px;&quot;&gt;DB&lt;/font&gt;&lt;/div&gt;" style="shape=cylinder3;whiteSpace=wrap;html=1;boundedLbl=1;backgroundOutline=1;size=15;horizontal=0;" vertex="1" parent="mrQkhuQPZ2nRp8lR56Vo-97">
          <mxGeometry x="120" width="30" height="70" as="geometry" />
        </mxCell>
        <mxCell id="mrQkhuQPZ2nRp8lR56Vo-134" style="edgeStyle=orthogonalEdgeStyle;rounded=0;orthogonalLoop=1;jettySize=auto;html=1;exitX=0.5;exitY=0;exitDx=0;exitDy=0;" edge="1" parent="mrQkhuQPZ2nRp8lR56Vo-97" source="mrQkhuQPZ2nRp8lR56Vo-99">
          <mxGeometry relative="1" as="geometry">
            <mxPoint x="44.94444444444446" y="4.4236111111111" as="targetPoint" />
          </mxGeometry>
        </mxCell>
        <mxCell id="mrQkhuQPZ2nRp8lR56Vo-99" value="Users" style="swimlane;fontStyle=0;childLayout=stackLayout;horizontal=1;startSize=10;horizontalStack=0;resizeParent=1;resizeParentMax=0;resizeLast=0;collapsible=1;marginBottom=0;whiteSpace=wrap;html=1;fontSize=7;fillColor=#d80073;strokeColor=#A50040;fontColor=#ffffff;" vertex="1" parent="mrQkhuQPZ2nRp8lR56Vo-97">
          <mxGeometry y="-10" width="90" height="80" as="geometry" />
        </mxCell>
        <mxCell id="mrQkhuQPZ2nRp8lR56Vo-100" value="&lt;div&gt;1. Registration&lt;/div&gt;&lt;div&gt;2. Authorization&lt;/div&gt;&lt;div&gt;3. Password change&lt;/div&gt;&lt;div&gt;4. Rating calculation&lt;/div&gt;&lt;div&gt;5. Separation of users by roles: &quot;Performers&quot;, &quot;Customers&quot;&lt;br&gt;&lt;/div&gt;" style="text;strokeColor=none;fillColor=none;align=left;verticalAlign=middle;spacingLeft=4;spacingRight=4;overflow=hidden;points=[[0,0.5],[1,0.5]];portConstraint=eastwest;rotatable=0;whiteSpace=wrap;html=1;fontSize=7;" vertex="1" parent="mrQkhuQPZ2nRp8lR56Vo-99">
          <mxGeometry y="10" width="90" height="70" as="geometry" />
        </mxCell>
        <mxCell id="mrQkhuQPZ2nRp8lR56Vo-103" value="" style="endArrow=classic;html=1;rounded=0;entryX=0;entryY=0;entryDx=0;entryDy=27.5;entryPerimeter=0;exitX=1.021;exitY=0.223;exitDx=0;exitDy=0;exitPerimeter=0;" edge="1" parent="mrQkhuQPZ2nRp8lR56Vo-97" source="mrQkhuQPZ2nRp8lR56Vo-100" target="mrQkhuQPZ2nRp8lR56Vo-98">
          <mxGeometry width="50" height="50" relative="1" as="geometry">
            <mxPoint x="50" y="76.5625" as="sourcePoint" />
            <mxPoint x="100" y="32.8125" as="targetPoint" />
          </mxGeometry>
        </mxCell>
        <mxCell id="mrQkhuQPZ2nRp8lR56Vo-104" value="" style="endArrow=classic;html=1;rounded=0;entryX=1.018;entryY=0.793;entryDx=0;entryDy=0;entryPerimeter=0;exitX=0;exitY=1;exitDx=0;exitDy=-15;exitPerimeter=0;" edge="1" parent="mrQkhuQPZ2nRp8lR56Vo-97" source="mrQkhuQPZ2nRp8lR56Vo-98" target="mrQkhuQPZ2nRp8lR56Vo-100">
          <mxGeometry width="50" height="50" relative="1" as="geometry">
            <mxPoint x="50" y="76.5625" as="sourcePoint" />
            <mxPoint x="89.6400000000001" y="35.4375000000001" as="targetPoint" />
          </mxGeometry>
        </mxCell>
        <mxCell id="mrQkhuQPZ2nRp8lR56Vo-105" value="" style="group" vertex="1" connectable="0" parent="1">
          <mxGeometry x="480" y="730" width="150" height="80" as="geometry" />
        </mxCell>
        <mxCell id="mrQkhuQPZ2nRp8lR56Vo-106" value="&lt;div style=&quot;font-size: 11px;&quot;&gt;&lt;font style=&quot;font-size: 11px;&quot;&gt;Postgre&lt;/font&gt;&lt;/div&gt;&lt;div style=&quot;font-size: 11px;&quot;&gt;&lt;font style=&quot;font-size: 11px;&quot;&gt;SQL&lt;/font&gt;&lt;/div&gt;" style="shape=cylinder3;whiteSpace=wrap;html=1;boundedLbl=1;backgroundOutline=1;size=15;horizontal=0;" vertex="1" parent="mrQkhuQPZ2nRp8lR56Vo-105">
          <mxGeometry x="120" width="30" height="80" as="geometry" />
        </mxCell>
        <mxCell id="mrQkhuQPZ2nRp8lR56Vo-107" value="Tasks" style="swimlane;fontStyle=0;childLayout=stackLayout;horizontal=1;startSize=10;horizontalStack=0;resizeParent=1;resizeParentMax=0;resizeLast=0;collapsible=1;marginBottom=0;whiteSpace=wrap;html=1;fontSize=7;fillColor=#008a00;fontColor=#ffffff;strokeColor=#005700;" vertex="1" parent="mrQkhuQPZ2nRp8lR56Vo-105">
          <mxGeometry width="90" height="80" as="geometry" />
        </mxCell>
        <mxCell id="mrQkhuQPZ2nRp8lR56Vo-108" value="&lt;div&gt;&lt;font style=&quot;font-size: 6px;&quot;&gt;1. Creating, editing, deleting&lt;/font&gt;&lt;/div&gt;&lt;div&gt;&lt;font style=&quot;font-size: 6px;&quot;&gt;2. Viewing information&lt;br&gt;&lt;/font&gt;&lt;/div&gt;&lt;div&gt;&lt;font style=&quot;font-size: 6px;&quot;&gt;3. Uploading images&lt;br&gt;&lt;/font&gt;&lt;/div&gt;&lt;div&gt;&lt;font style=&quot;font-size: 6px;&quot;&gt;4. Pagination&lt;br&gt;&lt;/font&gt;&lt;/div&gt;&lt;div&gt;&lt;font style=&quot;font-size: 6px;&quot;&gt;5. Categorization&lt;br&gt;&lt;/font&gt;&lt;/div&gt;&lt;div&gt;&lt;font style=&quot;font-size: 6px;&quot;&gt;6. Filtering&lt;br&gt;&lt;/font&gt;&lt;/div&gt;&lt;div&gt;&lt;font style=&quot;font-size: 6px;&quot;&gt;7. Breakdown by tags&lt;br&gt;&lt;/font&gt;&lt;/div&gt;" style="text;strokeColor=none;fillColor=none;align=left;verticalAlign=middle;spacingLeft=4;spacingRight=4;overflow=hidden;points=[[0,0.5],[1,0.5]];portConstraint=eastwest;rotatable=0;whiteSpace=wrap;html=1;fontSize=7;" vertex="1" parent="mrQkhuQPZ2nRp8lR56Vo-107">
          <mxGeometry y="10" width="90" height="70" as="geometry" />
        </mxCell>
        <mxCell id="mrQkhuQPZ2nRp8lR56Vo-111" value="" style="endArrow=classic;html=1;rounded=0;entryX=0;entryY=0;entryDx=0;entryDy=27.5;entryPerimeter=0;exitX=1;exitY=0.25;exitDx=0;exitDy=0;" edge="1" parent="mrQkhuQPZ2nRp8lR56Vo-105" source="mrQkhuQPZ2nRp8lR56Vo-107" target="mrQkhuQPZ2nRp8lR56Vo-106">
          <mxGeometry width="50" height="50" relative="1" as="geometry">
            <mxPoint x="50" y="87.5" as="sourcePoint" />
            <mxPoint x="100" y="37.5" as="targetPoint" />
          </mxGeometry>
        </mxCell>
        <mxCell id="mrQkhuQPZ2nRp8lR56Vo-112" value="" style="endArrow=classic;html=1;rounded=0;exitX=0;exitY=1;exitDx=0;exitDy=-15;exitPerimeter=0;entryX=1.002;entryY=0.662;entryDx=0;entryDy=0;entryPerimeter=0;" edge="1" parent="mrQkhuQPZ2nRp8lR56Vo-105" source="mrQkhuQPZ2nRp8lR56Vo-106" target="mrQkhuQPZ2nRp8lR56Vo-108">
          <mxGeometry width="50" height="50" relative="1" as="geometry">
            <mxPoint x="50" y="87.5" as="sourcePoint" />
            <mxPoint x="90" y="50" as="targetPoint" />
          </mxGeometry>
        </mxCell>
        <mxCell id="mrQkhuQPZ2nRp8lR56Vo-113" value="" style="group" vertex="1" connectable="0" parent="1">
          <mxGeometry x="480" y="850" width="150" height="80" as="geometry" />
        </mxCell>
        <mxCell id="mrQkhuQPZ2nRp8lR56Vo-114" value="Rabbit MQ" style="shape=cylinder3;whiteSpace=wrap;html=1;boundedLbl=1;backgroundOutline=1;size=15;horizontal=0;" vertex="1" parent="mrQkhuQPZ2nRp8lR56Vo-113">
          <mxGeometry x="120" width="30" height="80" as="geometry" />
        </mxCell>
        <mxCell id="mrQkhuQPZ2nRp8lR56Vo-115" value="Notify" style="swimlane;fontStyle=0;childLayout=stackLayout;horizontal=1;startSize=10;horizontalStack=0;resizeParent=1;resizeParentMax=0;resizeLast=0;collapsible=1;marginBottom=0;whiteSpace=wrap;html=1;fontSize=7;" vertex="1" parent="mrQkhuQPZ2nRp8lR56Vo-113">
          <mxGeometry width="90" height="70" as="geometry" />
        </mxCell>
        <mxCell id="mrQkhuQPZ2nRp8lR56Vo-116" value="1. Mailing of mail notifications" style="text;strokeColor=none;fillColor=none;align=left;verticalAlign=middle;spacingLeft=4;spacingRight=4;overflow=hidden;points=[[0,0.5],[1,0.5]];portConstraint=eastwest;rotatable=0;whiteSpace=wrap;html=1;fontSize=7;" vertex="1" parent="mrQkhuQPZ2nRp8lR56Vo-115">
          <mxGeometry y="10" width="90" height="60" as="geometry" />
        </mxCell>
        <mxCell id="mrQkhuQPZ2nRp8lR56Vo-119" value="" style="endArrow=classic;html=1;rounded=0;entryX=0;entryY=0;entryDx=0;entryDy=27.5;entryPerimeter=0;exitX=1;exitY=0.25;exitDx=0;exitDy=0;" edge="1" parent="mrQkhuQPZ2nRp8lR56Vo-113" source="mrQkhuQPZ2nRp8lR56Vo-115" target="mrQkhuQPZ2nRp8lR56Vo-114">
          <mxGeometry width="50" height="50" relative="1" as="geometry">
            <mxPoint x="50" y="87.5" as="sourcePoint" />
            <mxPoint x="100" y="37.5" as="targetPoint" />
          </mxGeometry>
        </mxCell>
        <mxCell id="mrQkhuQPZ2nRp8lR56Vo-120" value="" style="endArrow=classic;html=1;rounded=0;exitX=0;exitY=1;exitDx=0;exitDy=-15;exitPerimeter=0;" edge="1" parent="mrQkhuQPZ2nRp8lR56Vo-113" source="mrQkhuQPZ2nRp8lR56Vo-114">
          <mxGeometry width="50" height="50" relative="1" as="geometry">
            <mxPoint x="50" y="87.5" as="sourcePoint" />
            <mxPoint x="90" y="50" as="targetPoint" />
          </mxGeometry>
        </mxCell>
        <mxCell id="mrQkhuQPZ2nRp8lR56Vo-129" value="" style="endArrow=classic;html=1;rounded=0;exitX=1;exitY=0.5;exitDx=0;exitDy=0;entryX=0;entryY=0.5;entryDx=0;entryDy=0;" edge="1" parent="1" source="mrQkhuQPZ2nRp8lR56Vo-81" target="mrQkhuQPZ2nRp8lR56Vo-84">
          <mxGeometry width="50" height="50" relative="1" as="geometry">
            <mxPoint x="480" y="760" as="sourcePoint" />
            <mxPoint x="450" y="590" as="targetPoint" />
          </mxGeometry>
        </mxCell>
        <mxCell id="mrQkhuQPZ2nRp8lR56Vo-130" value="" style="endArrow=classic;html=1;rounded=0;exitX=1;exitY=0.5;exitDx=0;exitDy=0;entryX=0;entryY=0.5;entryDx=0;entryDy=0;" edge="1" parent="1" source="mrQkhuQPZ2nRp8lR56Vo-81" target="mrQkhuQPZ2nRp8lR56Vo-85">
          <mxGeometry width="50" height="50" relative="1" as="geometry">
            <mxPoint x="480" y="730" as="sourcePoint" />
            <mxPoint x="530" y="680" as="targetPoint" />
          </mxGeometry>
        </mxCell>
        <mxCell id="mrQkhuQPZ2nRp8lR56Vo-131" value="" style="endArrow=classic;html=1;rounded=0;exitX=1;exitY=0.5;exitDx=0;exitDy=0;entryX=-0.003;entryY=0.538;entryDx=0;entryDy=0;entryPerimeter=0;" edge="1" parent="1" source="mrQkhuQPZ2nRp8lR56Vo-81" target="mrQkhuQPZ2nRp8lR56Vo-86">
          <mxGeometry width="50" height="50" relative="1" as="geometry">
            <mxPoint x="480" y="830" as="sourcePoint" />
            <mxPoint x="530" y="780" as="targetPoint" />
          </mxGeometry>
        </mxCell>
        <mxCell id="mrQkhuQPZ2nRp8lR56Vo-132" value="" style="endArrow=classic;html=1;rounded=0;exitX=1;exitY=0.5;exitDx=0;exitDy=0;entryX=0;entryY=0.5;entryDx=0;entryDy=0;" edge="1" parent="1" source="mrQkhuQPZ2nRp8lR56Vo-81" target="mrQkhuQPZ2nRp8lR56Vo-87">
          <mxGeometry width="50" height="50" relative="1" as="geometry">
            <mxPoint x="480" y="890" as="sourcePoint" />
            <mxPoint x="530" y="840" as="targetPoint" />
          </mxGeometry>
        </mxCell>
        <mxCell id="mrQkhuQPZ2nRp8lR56Vo-135" value="" style="edgeStyle=elbowEdgeStyle;elbow=horizontal;endArrow=classic;html=1;curved=0;rounded=0;endSize=8;startSize=8;exitX=1;exitY=0.5;exitDx=0;exitDy=0;entryX=1.009;entryY=0.556;entryDx=0;entryDy=0;entryPerimeter=0;fillColor=#d80073;strokeColor=#A50040;" edge="1" parent="1" source="mrQkhuQPZ2nRp8lR56Vo-85" target="mrQkhuQPZ2nRp8lR56Vo-87">
          <mxGeometry width="50" height="50" relative="1" as="geometry">
            <mxPoint x="700" y="670" as="sourcePoint" />
            <mxPoint x="700" y="860" as="targetPoint" />
            <Array as="points">
              <mxPoint x="670" y="770" />
            </Array>
          </mxGeometry>
        </mxCell>
        <mxCell id="mrQkhuQPZ2nRp8lR56Vo-136" value="" style="endArrow=classic;html=1;rounded=0;entryX=1;entryY=0.5;entryDx=0;entryDy=0;fillColor=#d80073;strokeColor=#A50040;" edge="1" parent="1" target="mrQkhuQPZ2nRp8lR56Vo-86">
          <mxGeometry width="50" height="50" relative="1" as="geometry">
            <mxPoint x="670" y="768" as="sourcePoint" />
            <mxPoint x="570" y="730" as="targetPoint" />
          </mxGeometry>
        </mxCell>
        <mxCell id="mrQkhuQPZ2nRp8lR56Vo-137" value="" style="edgeStyle=elbowEdgeStyle;elbow=horizontal;endArrow=classic;html=1;curved=0;rounded=0;endSize=8;startSize=8;exitX=0.989;exitY=0.84;exitDx=0;exitDy=0;entryX=1.017;entryY=0.353;entryDx=0;entryDy=0;entryPerimeter=0;fillColor=#008a00;strokeColor=#005700;exitPerimeter=0;" edge="1" parent="1" source="mrQkhuQPZ2nRp8lR56Vo-86" target="mrQkhuQPZ2nRp8lR56Vo-85">
          <mxGeometry width="50" height="50" relative="1" as="geometry">
            <mxPoint x="700" y="647.5" as="sourcePoint" />
            <mxPoint x="702" y="892.5" as="targetPoint" />
            <Array as="points">
              <mxPoint x="730" y="769.5" />
            </Array>
          </mxGeometry>
        </mxCell>
        <mxCell id="mrQkhuQPZ2nRp8lR56Vo-138" value="" style="edgeStyle=elbowEdgeStyle;elbow=horizontal;endArrow=classic;html=1;curved=0;rounded=0;endSize=8;startSize=8;entryX=1;entryY=0.75;entryDx=0;entryDy=0;fillColor=#008a00;strokeColor=#005700;" edge="1" parent="1" target="mrQkhuQPZ2nRp8lR56Vo-84">
          <mxGeometry width="50" height="50" relative="1" as="geometry">
            <mxPoint x="730" y="640" as="sourcePoint" />
            <mxPoint x="645" y="470" as="targetPoint" />
            <Array as="points">
              <mxPoint x="740" y="600" />
            </Array>
          </mxGeometry>
        </mxCell>
        <mxCell id="mrQkhuQPZ2nRp8lR56Vo-139" value="" style="edgeStyle=elbowEdgeStyle;elbow=horizontal;endArrow=classic;html=1;curved=0;rounded=0;endSize=8;startSize=8;entryX=1;entryY=0.25;entryDx=0;entryDy=0;fillColor=#d80073;strokeColor=#A50040;" edge="1" parent="1" target="mrQkhuQPZ2nRp8lR56Vo-84">
          <mxGeometry width="50" height="50" relative="1" as="geometry">
            <mxPoint x="670" y="658" as="sourcePoint" />
            <mxPoint x="652" y="903" as="targetPoint" />
            <Array as="points">
              <mxPoint x="680" y="780" />
            </Array>
          </mxGeometry>
        </mxCell>
      </root>
    </mxGraphModel>
  </diagram>
</mxfile>
